<?xml version="1.0" encoding="UTF-8"?>
<svg width="71px" height="41px" viewBox="0 0 71 41" version="1.1" xmlns="http://www.w3.org/2000/svg" xmlns:xlink="http://www.w3.org/1999/xlink">
    <!-- Generator: Sketch 52.3 (67297) - http://www.bohemiancoding.com/sketch -->
    <title>with_watson_badge_secondary_black_on_white</title>
    <desc>Created with Sketch.</desc>
    <g id="Page-1" stroke="none" stroke-width="1" fill="none" fill-rule="evenodd">
        <g id="Extra-large:-Desktops---12-col---V2" transform="translate(-799.000000, -608.000000)">
            <g id="Group-2" transform="translate(572.000000, 608.000000)">
                <g id="Group-4">
                    <g id="with_watson_badge_secondary_black_on_white" transform="translate(227.000000, 0.000000)">
                        <path d="M69.952,9.686 L69.952,31.121 C69.952,35.901 66.063,39.789 61.279,39.789 L9.843,39.789 C5.064,39.789 1.175,35.901 1.175,31.121 L1.175,9.686 C1.175,4.906 5.064,1.018 9.843,1.018 L61.279,1.018 C66.063,1.018 69.952,4.906 69.952,9.686" id="Fill-1" stroke="#343434"></path>
                        <path d="M69.335,31.121 C69.335,35.572 65.728,39.179 61.282,39.179 L9.845,39.179 C5.395,39.179 1.788,35.572 1.788,31.121 L1.788,9.686 C1.788,5.234 5.395,1.627 9.845,1.627 L61.282,1.627 C65.728,1.627 69.335,5.234 69.335,9.686 L69.335,31.121 Z M61.282,0.404 L9.845,0.404 C4.729,0.404 0.563,4.565 0.563,9.686 L0.563,31.121 C0.563,36.242 4.729,40.403 9.845,40.403 L61.282,40.403 C66.398,40.403 70.563,36.242 70.563,31.121 L70.563,9.686 C70.563,4.565 66.398,0.404 61.282,0.404 Z" id="Fill-2"></path>
                        <path d="M26.303,22.164 L24.88,28.155 L24.854,28.155 L23.371,22.164 L21.58,22.164 L20.071,28.081 L20.044,28.081 L18.669,22.164 L16.757,22.164 L19.058,30.858 L20.996,30.858 L22.445,24.941 L22.466,24.941 L23.942,30.858 L25.84,30.858 L28.18,22.164 L26.303,22.164 Z M32.151,28.422 C32.151,28.812 32.099,29.871 30.749,29.871 C30.187,29.871 29.69,29.702 29.69,29.067 C29.69,28.436 30.178,28.24 30.714,28.146 C31.247,28.046 31.857,28.033 32.151,27.777 L32.151,28.422 Z M33.88,29.456 L33.88,26.182 C33.88,24.672 32.367,24.392 31.113,24.392 C29.703,24.392 28.253,24.893 28.154,26.497 L29.884,26.497 C29.945,25.819 30.36,25.55 31.031,25.55 C31.636,25.55 32.151,25.671 32.151,26.402 C32.224,27.813 27.986,26.281 27.959,29.141 C27.959,30.434 28.898,31.03 30.105,31.03 C30.883,31.03 31.675,30.823 32.224,30.252 C32.238,30.455 32.285,30.663 32.345,30.858 L34.097,30.858 C33.937,30.603 33.88,30.031 33.88,29.456 Z M38.483,25.719 L38.483,24.565 L37.215,24.565 L37.215,22.674 L35.486,22.674 L35.486,24.565 L34.439,24.565 L34.439,25.719 L35.486,25.719 L35.486,29.435 C35.486,30.702 36.398,30.931 37.471,30.931 C37.813,30.931 38.189,30.918 38.483,30.87 L38.483,29.521 C38.323,29.556 38.141,29.569 37.947,29.569 C37.363,29.569 37.215,29.422 37.215,28.838 L37.215,25.719 L38.483,25.719 Z M42.904,27.073 C41.93,26.839 40.944,26.757 40.944,26.134 C40.944,25.611 41.515,25.55 41.904,25.55 C42.523,25.55 43.038,25.733 43.085,26.402 L44.729,26.402 C44.594,24.854 43.314,24.392 41.952,24.392 C40.602,24.392 39.214,24.807 39.214,26.415 C39.214,27.535 40.2,27.864 41.207,28.094 C42.441,28.349 43.171,28.543 43.171,29.067 C43.171,29.677 42.523,29.871 42.039,29.871 C41.368,29.871 40.71,29.556 40.71,28.812 L39.067,28.812 C39.127,30.482 40.563,31.03 42.025,31.03 C43.449,31.03 44.897,30.494 44.897,28.838 C44.897,27.67 43.916,27.302 42.904,27.073 Z M48.738,29.725 C47.566,29.725 47.215,28.73 47.215,27.717 C47.215,26.705 47.566,25.697 48.738,25.697 C49.919,25.697 50.269,26.705 50.269,27.717 C50.269,28.73 49.919,29.725 48.738,29.725 Z M48.738,24.392 C46.761,24.392 45.486,25.706 45.486,27.717 C45.486,29.716 46.761,31.03 48.738,31.03 C50.719,31.03 52,29.716 52,27.717 C52,25.706 50.719,24.392 48.738,24.392 Z M26.303,9.988 L24.88,15.979 L24.854,15.979 L23.371,9.988 L21.58,9.988 L20.071,15.905 L20.044,15.905 L18.669,9.988 L16.757,9.988 L19.058,18.682 L20.996,18.682 L22.445,12.765 L22.466,12.765 L23.942,18.682 L25.84,18.682 L28.18,9.988 L26.303,9.988 Z M28.699,11.411 L30.429,11.411 L30.429,9.988 L28.699,9.988 L28.699,11.411 Z M28.699,18.682 L30.429,18.682 L30.429,12.389 L28.699,12.389 L28.699,18.682 Z M35.057,13.543 L35.057,12.389 L33.791,12.389 L33.791,10.498 L32.06,10.498 L32.06,12.389 L31.013,12.389 L31.013,13.543 L32.06,13.543 L32.06,17.259 C32.06,18.527 32.977,18.755 34.045,18.755 C34.387,18.755 34.763,18.742 35.057,18.694 L35.057,17.341 C34.897,17.38 34.715,17.393 34.521,17.393 C33.937,17.393 33.791,17.246 33.791,16.662 L33.791,13.543 L35.057,13.543 Z M39.599,12.216 C38.955,12.216 38.198,12.544 37.76,13.263 L37.722,13.263 L37.722,9.988 L35.996,9.988 L35.996,18.682 L37.722,18.682 L37.722,15.382 C37.722,14.106 38.124,13.578 39.063,13.578 C39.88,13.578 40.169,14.093 40.169,15.126 L40.169,18.682 L41.9,18.682 L41.9,14.811 C41.9,13.249 41.437,12.216 39.599,12.216 Z" id="Fill-3" fill="#343434"></path>
                        <path d="M9.848,31.733 C9.51,31.733 9.236,31.458 9.236,31.12 L9.236,9.687 C9.236,9.348 9.51,9.073 9.848,9.073 C10.187,9.073 10.461,9.348 10.461,9.687 L10.461,31.12 C10.461,31.458 10.187,31.733 9.848,31.733" id="Fill-4" fill="#343434"></path>
                        <path d="M56.433,24.392 C55.702,24.392 54.945,24.72 54.508,25.438 L54.469,25.438 L54.469,24.565 L52.826,24.565 L52.826,30.858 L54.555,30.858 L54.555,27.562 C54.555,26.281 54.957,25.758 55.897,25.758 C56.714,25.758 57.003,26.269 57.003,27.302 L57.003,30.858 L58.734,30.858 L58.734,26.986 C58.734,25.429 58.271,24.392 56.433,24.392" id="Fill-5" fill="#343434"></path>
                        <polyline id="Fill-6" fill="#343434" points="60.384 22.791 58.983 22.791 58.983 23.027 59.538 23.027 59.538 24.561 59.83 24.561 59.83 23.027 60.384 23.027 60.384 22.791"></polyline>
                        <polyline id="Fill-7" fill="#343434" points="62.646 22.791 62.199 22.791 61.678 24.136 61.15 22.791 60.699 22.791 60.699 24.561 60.991 24.561 60.991 23.083 60.999 23.083 61.58 24.561 61.764 24.561 62.345 23.083 62.353 23.083 62.353 24.561 62.646 24.561 62.646 22.791"></polyline>
                    </g>
                </g>
            </g>
        </g>
    </g>
</svg>